<?xml version="1.0" encoding="utf-8"?>
<!DOCTYPE svg PUBLIC "-//W3C//DTD SVG 20010904//EN" "http://www.w3.org/TR/2001/REC-SVG-20010904/DTD/svg10.dtd">
<svg version="1.0" xmlns="http://www.w3.org/2000/svg" width="1425pt" height="366pt" viewBox="0 0 1425 366" preserveAspectRatio="xMidYMid meet">
<g fill="#0B513EFE">
<path d="M 146.74 362.47 C 94.14 353.88 50.62 324.28 24.60 279.40 C 2.76 241.72 -3.22 192.31 9.05 150.98 C 12.29 140.09 20.41 120.73 22.71 118.44 C 23.50 117.65 23.77 116.99 23.32 116.98 C 22.87 116.98 22.95 116.64 23.50 116.23 C 24.05 115.83 25.36 113.81 26.41 111.75 C 27.46 109.69 28.69 108.00 29.16 108.00 C 29.62 108.00 30.00 107.43 30.00 106.72 C 30.00 103.65 45.37 86.15 57.81 75.06 C 68.76 65.30 93.54 49.88 95.36 51.69 C 95.71 52.04 96.00 51.78 96.00 51.11 C 96.00 50.43 96.42 50.14 96.93 50.46 C 97.44 50.77 98.12 50.61 98.44 50.09 C 98.98 49.22 109.90 45.23 113.79 44.48 C 114.73 44.30 115.61 44.06 115.75 43.95 C 115.89 43.84 116.34 43.66 116.75 43.56 C 117.16 43.45 119.47 42.80 121.89 42.11 C 127.74 40.43 141.35 38.09 140.32 38.94 C 139.87 39.31 136.13 40.66 132.01 41.94 C 127.89 43.22 121.25 45.76 117.26 47.58 C 113.27 49.40 110.00 50.67 110.00 50.40 C 110.00 50.14 109.44 50.40 108.75 50.98 C 108.06 51.56 103.57 54.47 98.77 57.44 C 46.40 89.83 19.30 152.50 31.58 212.83 C 42.70 267.53 82.32 312.48 134.89 330.04 C 152.93 336.07 162.34 337.45 185.00 337.41 C 201.35 337.38 206.19 337.02 215.00 335.13 C 236.34 330.56 254.93 322.79 273.00 310.91 C 286.09 302.30 306.51 281.83 314.80 269.00 C 318.18 263.77 321.42 258.94 322.01 258.25 C 322.60 257.56 322.87 257.00 322.60 257.00 C 322.34 257.00 323.89 253.23 326.05 248.63 C 329.93 240.35 335.92 223.36 336.09 220.16 C 336.13 219.25 336.54 219.72 336.99 221.21 C 337.92 224.31 334.56 241.54 330.97 252.00 C 317.25 292.05 284.66 328.05 244.50 347.53 C 232.87 353.17 215.94 358.74 201.93 361.54 C 190.27 363.86 158.56 364.40 146.74 362.47Z"/></g>
<g fill="#CCA652FF">
<path d="M 159.50 335.55 C 126.79 330.41 98.86 316.04 74.99 292.06 C 64.01 281.03 55.44 269.78 48.10 256.75 C 46.31 253.59 45.22 250.99 45.68 250.98 C 46.13 250.98 46.05 250.64 45.50 250.23 C 42.50 248.03 34.79 225.73 31.96 211.05 C 24.17 170.69 33.96 127.80 58.46 94.95 C 76.08 71.33 104.07 51.36 131.80 42.62 C 143.25 39.01 143.93 39.38 134.28 43.95 C 121.20 50.15 108.56 59.40 95.95 71.98 C 78.90 88.99 69.55 103.92 62.52 125.37 C 56.92 142.46 55.55 151.33 55.53 170.50 C 55.51 205.05 63.42 228.81 84.23 256.73 C 88.02 261.81 91.72 266.31 92.45 266.73 C 93.19 267.15 97.24 270.76 101.46 274.75 C 105.67 278.74 109.40 282.00 109.75 282.00 C 110.09 282.00 112.43 283.72 114.94 285.82 C 119.43 289.58 122.62 291.43 136.50 298.33 C 166.00 312.98 202.01 316.69 233.82 308.37 C 239.14 306.97 245.14 305.43 247.13 304.94 C 249.13 304.44 255.20 301.99 260.61 299.48 C 290.16 285.76 315.54 260.78 329.29 231.90 C 331.61 227.04 333.89 223.05 334.37 223.03 C 334.85 223.01 334.70 223.66 334.04 224.46 C 333.37 225.26 333.12 226.38 333.47 226.96 C 333.83 227.53 333.59 228.00 332.95 228.00 C 332.31 228.00 332.05 228.70 332.38 229.55 C 332.77 230.56 332.57 230.85 331.83 230.40 C 331.05 229.91 330.87 230.38 331.25 231.85 C 331.60 233.17 331.42 233.76 330.80 233.38 C 330.16 232.98 330.05 233.57 330.50 235.00 C 331.04 236.69 330.89 237.05 329.94 236.46 C 329.04 235.91 328.84 236.15 329.27 237.27 C 329.98 239.11 327.15 247.00 325.79 247.00 C 325.29 247.00 325.16 247.45 325.50 248.00 C 325.84 248.55 325.61 249.00 325.00 249.00 C 324.39 249.00 324.16 249.45 324.50 250.00 C 324.84 250.55 324.72 251.00 324.23 251.00 C 323.73 251.00 323.33 251.61 323.33 252.36 C 323.33 254.57 316.44 266.23 309.85 275.17 C 303.96 283.14 284.60 303.17 283.18 302.76 C 282.81 302.65 280.99 303.96 279.15 305.67 C 273.69 310.74 254.57 321.62 243.66 325.89 C 222.87 334.00 206.17 337.03 183.00 336.90 C 174.47 336.84 163.90 336.24 159.50 335.55Z"/></g>
<g fill="#0B513EFE">
<path d="M 606.50 246.32 C 601.05 245.10 592.00 241.73 592.00 240.92 C 592.00 240.41 591.50 240.00 590.89 240.00 C 588.94 240.00 582.22 234.06 578.61 229.16 C 568.59 215.50 567.04 191.94 575.08 175.33 C 578.42 168.43 587.97 159.38 595.85 155.65 C 602.06 152.71 603.23 152.50 613.50 152.50 C 622.87 152.50 625.26 152.84 629.63 154.82 C 632.46 156.10 636.03 158.46 637.57 160.07 C 641.46 164.13 643.00 163.86 643.00 159.11 C 643.00 154.18 643.81 153.86 655.95 154.07 L 665.50 154.24 L 665.88 199.12 L 666.26 244.00 L 654.63 244.00 L 643.00 244.00 L 643.00 240.00 C 643.00 237.80 642.75 236.00 642.45 236.00 C 642.15 236.00 639.34 237.79 636.20 239.98 C 628.06 245.66 615.52 248.34 606.50 246.32ZM 628.98 222.92 C 634.86 220.25 636.72 218.48 639.65 212.70 C 644.96 202.23 643.49 187.90 636.35 180.55 C 631.13 175.17 625.87 173.05 617.72 173.02 C 606.55 172.99 599.87 177.02 595.38 186.50 C 592.71 192.16 592.15 202.44 594.16 209.14 C 595.71 214.32 601.45 220.85 606.44 223.11 C 612.14 225.70 623.06 225.61 628.98 222.92Z"/></g>
<g fill="#0B513EFE">
<path d="M 909.26 245.49 C 880.27 239.19 864.79 206.03 877.92 178.35 C 881.42 170.97 890.91 161.03 897.75 157.60 C 900.64 156.15 903.00 155.25 903.00 155.61 C 903.00 155.96 903.66 155.70 904.46 155.04 C 905.26 154.37 906.35 154.10 906.89 154.43 C 907.42 154.76 908.11 154.63 908.41 154.15 C 909.34 152.64 920.20 151.94 926.50 152.98 C 935.07 154.40 944.03 159.13 949.34 165.03 C 951.79 167.76 954.07 170.00 954.40 170.00 C 954.73 170.00 955.00 166.63 955.00 162.52 C 955.00 155.49 955.14 155.00 957.36 154.45 C 958.66 154.12 961.25 154.00 963.11 154.18 L 966.50 154.50 L 966.76 199.25 L 967.02 244.00 L 961.01 244.00 L 955.00 244.00 L 955.00 236.50 C 955.00 232.38 954.72 229.00 954.38 229.00 C 954.03 229.00 951.96 231.03 949.78 233.52 C 944.56 239.44 939.07 242.55 929.50 245.00 C 920.52 247.30 917.89 247.36 909.26 245.49ZM 936.56 232.05 C 943.81 228.48 948.23 223.86 951.90 216.05 C 954.23 211.08 954.50 209.30 954.50 199.00 C 954.50 187.81 954.41 187.33 951.09 181.21 C 944.61 169.25 934.99 163.62 921.00 163.58 C 908.78 163.55 903.08 165.74 895.41 173.41 C 887.04 181.79 884.66 188.10 885.20 200.50 C 885.51 207.49 886.17 210.75 888.18 215.12 C 892.83 225.21 901.89 232.95 911.50 235.04 C 919.12 236.69 929.68 235.43 936.56 232.05Z"/></g>
<g fill="#0B513EFE">
<path d="M 419.06 245.44 C 409.84 243.45 402.64 239.59 396.09 233.13 C 387.10 224.27 383.02 213.78 383.02 199.50 C 383.02 190.88 384.60 183.52 387.89 176.76 C 390.35 171.70 399.68 161.00 401.63 161.00 C 402.38 161.00 403.00 160.61 403.00 160.14 C 403.00 159.10 412.88 154.61 418.50 153.09 C 420.70 152.50 426.17 152.01 430.64 152.01 C 455.19 151.99 472.91 167.65 476.07 192.17 C 476.54 195.83 476.59 200.78 476.18 203.17 L 475.45 207.50 L 440.72 207.76 C 421.63 207.91 406.00 208.38 406.00 208.82 C 406.00 209.25 407.30 211.65 408.88 214.15 C 414.06 222.32 421.79 226.29 432.50 226.29 C 440.28 226.29 445.94 224.39 450.15 220.35 C 451.61 218.96 453.41 217.97 454.15 218.16 C 456.48 218.75 472.00 227.47 472.00 228.18 C 472.00 229.86 462.01 238.76 457.28 241.30 C 447.29 246.65 432.18 248.29 419.06 245.44ZM 453.00 188.34 C 453.00 183.93 448.40 177.32 443.22 174.28 C 439.10 171.86 437.48 171.51 430.50 171.55 C 422.13 171.59 417.98 172.98 413.15 177.37 C 410.30 179.96 407.00 186.18 407.00 188.96 C 407.00 190.95 407.52 191.00 430.00 191.00 L 453.00 191.00 L 453.00 188.34Z"/></g>
<g fill="#0B513EFE">
<path d="M 182.00 311.33 C 165.15 308.62 148.20 303.67 137.82 298.41 C 132.33 295.63 131.56 293.81 132.18 285.20 C 133.05 273.22 141.88 262.13 159.00 251.55 C 173.42 242.63 178.18 238.67 182.47 232.05 C 184.62 228.72 186.63 226.00 186.94 226.01 C 187.25 226.01 188.53 227.81 189.78 230.01 C 193.21 236.02 197.47 240.46 203.79 244.62 C 206.93 246.68 209.78 248.77 210.11 249.27 C 210.45 249.77 211.04 250.09 211.43 249.99 C 212.95 249.59 225.77 258.71 230.28 263.40 C 237.66 271.08 240.74 278.41 242.02 291.33 C 242.60 297.29 242.83 302.97 242.51 303.96 C 241.27 307.88 217.77 312.05 198.00 311.86 C 190.57 311.79 183.38 311.55 182.00 311.33Z"/></g>
<g fill="#0B513EFE">
<path d="M 686.00 200.20 C 686.00 167.47 686.30 156.10 687.20 155.20 C 688.45 153.95 704.47 153.48 707.42 154.61 C 708.49 155.02 709.00 156.48 709.00 159.11 C 709.00 161.25 709.28 163.00 709.62 163.00 C 709.96 163.00 711.77 161.65 713.65 160.01 C 720.53 153.96 724.59 152.55 735.00 152.57 C 744.27 152.59 746.37 152.85 748.57 154.23 C 749.16 154.59 750.89 155.12 752.41 155.40 C 753.93 155.67 755.92 156.46 756.84 157.15 C 760.59 159.98 764.94 164.58 764.97 165.75 C 764.99 166.44 765.40 167.00 765.89 167.00 C 766.38 167.00 767.62 168.91 768.63 171.25 C 770.29 175.06 770.52 179.04 770.80 209.75 L 771.12 244.00 L 759.56 244.00 L 748.00 244.00 L 747.98 215.25 C 747.95 182.75 747.59 180.84 740.44 175.39 C 737.14 172.87 735.81 172.51 729.92 172.50 C 724.04 172.50 722.63 172.88 718.89 175.51 C 716.30 177.33 713.60 180.47 712.05 183.48 C 709.52 188.40 709.50 188.67 709.19 216.22 L 708.88 244.00 L 697.44 244.00 L 686.00 244.00 L 686.00 200.20Z"/></g>
<g fill="#0B513EFE">
<path d="M 486.00 236.34 C 486.00 228.89 486.11 228.53 490.22 223.09 C 492.54 220.02 495.02 216.82 495.74 216.00 C 496.46 215.18 501.65 208.41 507.28 200.97 C 512.90 193.52 518.07 186.77 518.76 185.97 C 521.22 183.12 527.00 175.11 527.00 174.56 C 527.00 174.25 518.00 174.00 507.00 174.00 L 487.00 174.00 L 487.00 164.52 C 487.00 155.52 487.11 155.01 489.25 154.49 C 490.49 154.19 506.35 154.07 524.50 154.22 L 557.50 154.50 L 557.79 161.76 C 558.12 169.91 558.04 170.08 545.48 186.50 C 542.12 190.90 537.07 197.52 534.26 201.21 C 531.45 204.90 528.67 208.50 528.08 209.21 C 525.14 212.75 519.00 221.54 519.00 222.22 C 519.00 222.65 528.23 223.00 539.50 223.00 L 560.00 223.00 L 560.00 233.50 L 560.00 244.00 L 523.00 244.00 L 486.00 244.00 L 486.00 236.34Z"/></g>
<g fill="#0B513EFE">
<path d="M 1180.24 199.25 L 1180.50 154.50 L 1185.50 154.50 L 1190.50 154.50 L 1190.80 160.25 C 1190.96 163.41 1191.36 166.00 1191.67 166.00 C 1191.98 166.00 1194.09 164.13 1196.37 161.84 C 1203.90 154.27 1216.54 150.69 1226.50 153.31 C 1228.15 153.75 1229.95 154.23 1230.50 154.38 C 1236.14 155.90 1244.97 162.64 1245.02 165.44 C 1245.02 166.02 1245.45 167.17 1245.97 167.99 C 1246.77 169.25 1247.22 169.15 1248.96 167.28 C 1250.08 166.07 1251.00 164.65 1251.00 164.13 C 1251.00 163.61 1252.41 161.99 1254.13 160.54 C 1257.58 157.64 1265.00 153.58 1265.00 154.60 C 1265.00 154.96 1265.56 154.82 1266.25 154.30 C 1267.69 153.21 1270.79 152.72 1276.50 152.68 C 1280.00 152.65 1287.04 153.51 1287.75 154.06 C 1287.89 154.16 1288.45 154.36 1289.00 154.50 C 1289.55 154.64 1290.11 154.84 1290.25 154.95 C 1290.39 155.06 1291.35 155.31 1292.38 155.51 C 1295.13 156.02 1301.09 161.10 1304.23 165.60 C 1309.34 172.92 1310.00 178.34 1310.00 212.71 L 1310.00 244.00 L 1304.61 244.00 L 1299.22 244.00 L 1298.59 225.75 C 1298.25 215.71 1298.09 201.20 1298.24 193.50 C 1298.50 179.64 1298.47 179.45 1295.55 174.18 C 1291.27 166.45 1285.95 163.55 1276.03 163.54 C 1267.22 163.53 1261.99 165.76 1257.23 171.54 C 1251.53 178.45 1251.00 182.13 1251.00 214.61 L 1251.00 244.00 L 1245.00 244.00 L 1239.00 244.00 L 1239.00 211.97 C 1239.00 177.10 1238.79 175.55 1233.20 169.66 C 1228.69 164.92 1225.20 163.60 1216.99 163.56 C 1210.65 163.53 1208.79 163.93 1204.99 166.16 C 1199.18 169.57 1197.68 171.30 1194.30 178.53 L 1191.50 184.50 L 1191.18 214.25 L 1190.87 244.00 L 1185.42 244.00 L 1179.98 244.00 L 1180.24 199.25Z"/></g>
<g fill="#0B513EFE">
<path d="M 111.80 282.75 C 108.81 280.41 103.81 276.25 100.69 273.50 L 95.03 268.50 L 95.01 221.82 C 95.00 176.02 94.96 175.12 93.00 174.50 C 90.55 173.72 90.43 172.42 92.70 171.15 C 94.29 170.26 94.28 169.95 92.59 166.21 C 90.72 162.05 91.10 156.00 93.25 156.00 C 93.84 156.00 94.09 155.75 93.78 155.45 C 93.04 154.70 100.04 147.00 101.47 147.00 C 102.09 147.00 103.63 145.31 104.89 143.25 C 106.14 141.19 106.95 140.22 106.67 141.10 C 106.35 142.15 108.39 144.71 112.61 148.56 C 120.47 155.72 122.16 160.09 119.43 166.16 C 117.79 169.80 117.79 170.11 119.42 171.91 C 120.94 173.59 120.96 173.92 119.63 174.67 C 118.30 175.41 118.07 182.64 117.81 231.26 C 117.65 261.92 117.45 287.00 117.38 287.00 C 117.30 287.00 114.79 285.09 111.80 282.75Z"/></g>
<g fill="#0B513EFE">
<path d="M 1051.27 244.24 C 1048.60 243.94 1044.20 240.08 1025.82 221.94 C 1013.61 209.87 1003.25 200.00 1002.80 200.00 C 1002.36 200.00 1002.00 209.90 1002.00 222.00 L 1002.00 244.00 L 995.99 244.00 L 989.99 244.00 L 990.24 180.75 L 990.50 117.50 L 993.89 117.18 C 995.75 117.00 998.34 117.12 999.64 117.45 L 1002.00 118.04 L 1002.00 156.52 C 1002.00 177.68 1002.30 195.00 1002.66 195.00 C 1003.45 195.00 1010.71 188.26 1029.19 170.36 C 1036.73 163.07 1044.26 156.40 1045.93 155.54 C 1049.40 153.74 1059.00 153.67 1059.00 155.44 C 1059.00 156.05 1049.59 165.54 1038.10 176.53 C 1026.60 187.51 1017.15 196.74 1017.10 197.04 C 1017.04 197.33 1027.55 208.13 1040.45 221.04 L 1063.91 244.50 L 1059.20 244.55 C 1056.62 244.57 1053.05 244.43 1051.27 244.24Z"/></g>
<g fill="#CCA652FF">
<path d="M 251.47 231.21 C 203.00 202.36 197.18 199.00 195.63 199.00 C 194.75 199.00 192.07 199.52 189.68 200.16 C 185.73 201.22 184.92 201.10 181.00 198.91 C 178.29 197.41 175.93 195.06 174.70 192.68 C 172.99 189.35 172.88 188.34 173.91 184.91 C 174.56 182.74 176.42 179.45 178.05 177.60 L 181.00 174.24 L 181.00 125.62 C 181.00 78.33 181.05 76.95 183.00 75.00 C 185.49 72.51 188.19 72.45 190.35 74.83 C 191.84 76.48 192.00 81.44 192.00 125.23 L 192.00 173.80 L 195.45 177.25 C 197.58 179.38 199.33 182.43 200.04 185.24 C 201.03 189.17 201.82 190.13 205.90 192.35 C 217.59 198.71 273.86 232.40 277.00 234.91 C 278.93 236.45 280.65 238.49 280.84 239.43 C 281.25 241.54 278.27 245.01 276.10 244.96 C 275.22 244.94 264.14 238.75 251.47 231.21Z"/></g>
<g fill="#0B513EFE">
<path d="M 817.63 242.25 C 816.10 239.30 807.00 217.16 806.63 215.50 C 806.50 214.95 805.90 213.58 805.28 212.46 C 804.66 211.34 801.91 204.81 799.16 197.96 C 796.41 191.11 791.25 178.66 787.69 170.31 C 784.13 161.95 781.47 154.87 781.77 154.56 C 782.60 153.74 792.31 153.91 793.62 154.77 C 794.78 155.53 796.54 159.95 796.20 161.25 C 796.09 161.66 796.45 162.00 797.00 162.00 C 797.55 162.00 797.93 162.34 797.84 162.75 C 797.75 163.16 798.15 164.62 798.73 166.00 C 803.65 177.66 812.27 199.75 812.30 200.75 C 812.32 201.44 812.71 202.00 813.17 202.00 C 813.63 202.00 813.93 202.34 813.85 202.75 C 813.76 203.16 814.37 205.07 815.19 207.00 C 816.02 208.93 818.45 214.88 820.60 220.24 C 822.74 225.59 824.95 229.97 825.50 229.97 C 826.05 229.97 830.30 220.41 834.94 208.73 C 839.58 197.05 843.83 186.60 844.39 185.50 C 844.95 184.40 845.50 183.05 845.62 182.50 C 845.90 181.25 852.75 164.48 853.92 162.19 C 854.40 161.26 855.25 159.31 855.82 157.85 C 856.70 155.63 857.69 155.09 862.05 154.49 C 865.92 153.96 867.46 154.12 868.07 155.11 C 868.56 155.91 868.41 156.76 867.70 157.21 C 867.04 157.63 866.81 157.98 867.18 157.98 C 867.73 158.00 862.48 171.46 854.52 190.50 C 854.06 191.60 853.75 192.84 853.84 193.25 C 853.93 193.66 853.63 194.00 853.17 194.00 C 852.71 194.00 852.32 194.56 852.31 195.25 C 852.30 195.94 847.87 207.00 842.46 219.84 C 831.72 245.36 831.99 245.00 823.46 245.00 C 819.66 245.00 818.85 244.62 817.63 242.25Z"/></g>
<g fill="#0B513EFE">
<path d="M 1103.83 244.53 C 1097.31 242.74 1093.56 239.77 1090.84 234.24 C 1088.56 229.62 1088.49 228.71 1088.19 197.25 L 1087.87 165.00 L 1079.05 165.00 C 1069.41 165.00 1069.05 164.75 1069.01 157.86 C 1069.00 154.48 1070.37 154.00 1080.08 154.00 L 1088.00 154.00 L 1088.00 143.93 C 1088.00 136.42 1088.37 133.48 1089.46 132.39 C 1090.27 131.59 1091.17 130.94 1091.46 130.96 C 1091.76 130.98 1092.11 130.97 1092.25 130.92 C 1092.39 130.88 1093.23 130.70 1094.13 130.53 C 1095.02 130.36 1096.71 129.91 1097.88 129.54 C 1099.96 128.88 1100.00 129.08 1100.00 141.43 L 1100.00 154.00 L 1111.75 154.02 C 1118.21 154.02 1123.95 154.36 1124.50 154.77 C 1125.05 155.17 1125.61 157.64 1125.74 160.25 L 1125.98 165.00 L 1112.99 165.00 L 1100.00 165.00 L 1100.00 195.25 C 1100.01 223.49 1100.14 225.71 1101.96 228.70 C 1105.01 233.70 1108.91 235.20 1117.93 234.82 L 1125.68 234.50 L 1125.89 239.61 L 1126.09 244.72 L 1122.30 245.35 C 1116.55 246.30 1109.03 245.97 1103.83 244.53Z"/></g>
<g fill="#0B513EFE">
<path d="M 1144.00 199.52 L 1144.00 155.04 L 1146.36 154.45 C 1147.66 154.12 1150.25 154.00 1152.11 154.18 L 1155.50 154.50 L 1155.76 199.25 L 1156.02 244.00 L 1150.01 244.00 L 1144.00 244.00 L 1144.00 199.52Z"/></g>
<g fill="#CCA652FF">
<path d="M 170.00 54.73 C 170.00 54.52 171.12 51.04 172.50 47.00 C 176.21 36.10 176.16 35.95 167.25 29.29 L 159.50 23.50 L 169.96 23.00 L 180.42 22.50 L 183.00 14.50 C 184.42 10.10 185.84 5.83 186.15 5.00 C 186.46 4.17 188.04 7.77 189.66 13.00 L 192.60 22.50 L 203.38 23.00 L 214.16 23.50 L 206.61 29.00 C 197.93 35.32 197.68 36.12 200.98 46.95 C 202.05 50.49 202.77 53.57 202.56 53.77 C 202.35 53.98 198.79 51.78 194.63 48.90 C 185.99 42.89 186.70 42.83 176.25 50.52 C 172.81 53.05 170.00 54.94 170.00 54.73Z"/></g>
<g fill="#95BF97FF">
<path d="M 1365.90 242.71 C 1359.94 238.70 1359.50 236.78 1359.50 214.50 L 1359.50 194.50 L 1353.50 194.00 C 1347.87 193.53 1347.48 193.33 1347.19 190.80 C 1346.88 188.14 1346.98 188.09 1353.19 187.80 L 1359.50 187.50 L 1359.79 179.75 C 1360.01 173.98 1360.44 172.00 1361.46 172.00 C 1362.22 172.00 1363.53 171.73 1364.38 171.41 C 1365.67 170.91 1365.96 172.13 1366.21 179.16 L 1366.50 187.50 L 1374.25 187.79 L 1382.00 188.08 L 1382.00 191.00 L 1382.00 193.92 L 1374.25 194.21 L 1366.50 194.50 L 1366.50 214.22 C 1366.50 233.24 1366.58 234.03 1368.71 236.16 C 1370.36 237.81 1372.45 238.48 1376.96 238.80 C 1382.85 239.23 1383.00 239.31 1383.00 242.12 L 1383.00 245.00 L 1376.15 245.00 C 1370.67 245.00 1368.62 244.54 1365.90 242.71Z"/></g>
<g fill="#95BF97FF">
<path d="M 1397.00 216.00 L 1397.00 188.00 L 1400.00 188.00 C 1402.76 188.00 1403.00 188.28 1403.00 191.50 C 1403.00 194.24 1403.40 195.00 1404.85 195.00 C 1405.86 195.00 1407.55 194.05 1408.59 192.90 C 1410.92 190.32 1415.41 187.93 1419.75 186.95 C 1422.97 186.22 1423.00 186.24 1423.00 189.98 C 1423.00 193.71 1422.96 193.74 1418.39 194.26 C 1412.71 194.90 1409.12 197.41 1406.50 202.56 C 1404.76 206.00 1404.46 208.91 1404.16 225.25 L 1403.81 244.00 L 1400.41 244.00 L 1397.00 244.00 L 1397.00 216.00Z"/></g>
<g fill="#0B513EFE">
<path d="M 1146.02 133.72 C 1143.20 132.29 1141.04 128.60 1141.01 125.17 C 1140.99 121.60 1146.17 116.99 1150.17 117.03 C 1158.28 117.11 1161.88 126.27 1156.08 132.08 C 1152.93 135.22 1149.96 135.71 1146.02 133.72Z"/></g>
<g fill="#95BF97FF">
<path d="M 1329.45 243.55 C 1328.10 242.20 1327.00 240.15 1327.00 239.00 C 1327.00 236.42 1331.27 231.99 1333.70 232.03 C 1335.98 232.07 1338.34 233.87 1339.87 236.74 C 1340.82 238.54 1340.76 239.56 1339.57 241.87 C 1337.09 246.66 1333.21 247.30 1329.45 243.55Z"/></g>
</svg>
